<svg id="Layer_1" data-name="Layer 1" xmlns="http://www.w3.org/2000/svg" viewBox="0 0 155.13 71.11"><defs><style>.cls-1{fill:#fec945;}.cls-1,.cls-2,.cls-3{stroke:#59595b;stroke-linecap:round;stroke-linejoin:round;stroke-width:2.83px;}.cls-2{fill:#ea78ac;}.cls-3,.cls-6{fill:#3ccefd;}.cls-4{font-size:32.6px;}.cls-4,.cls-5{fill:#4d4d4d;}.cls-4,.cls-6{font-family:LevenimMT-Bold, Levenim MT;font-weight:700;}.cls-6{font-size:8.27px;}</style></defs><rect class="cls-1" x="1.42" y="33.51" width="20.43" height="20.43"/><rect class="cls-2" x="26.44" y="33.51" width="20.43" height="20.43"/><rect class="cls-3" x="12.11" y="9.89" width="20.43" height="20.43" transform="translate(5.4 -12.51) rotate(23.7)"/><text class="cls-4" transform="translate(49.78 54.24)">blocks</text><path class="cls-5" d="M54.7,24.25a6.86,6.86,0,0,1-1,3.55,6.24,6.24,0,0,1-2.67,2.47,10,10,0,0,1-4.44.82H40.06V7.67h3.67a19.13,19.13,0,0,1,4.68.42,6.29,6.29,0,0,1,3.3,2,5.48,5.48,0,0,1-1.12,8.07Q54.7,20.11,54.7,24.25Zm-6-10c0-1.59-1-2.38-3-2.38H44.51v4.93h1C47.6,16.84,48.67,16,48.67,14.29Zm1.64,9.82q0-3.27-4.88-3.27h-.92v6h1.11a9.45,9.45,0,0,0,3.1-.38A2.33,2.33,0,0,0,50.31,24.11Z" transform="translate(-4.56 -5.23)"/><path class="cls-5" d="M73.69,21.11a17.86,17.86,0,0,1-.72,6.2c-1.21,2.82-3.51,4.22-6.91,4.22q-5.55,0-7.08-4.82A21.68,21.68,0,0,1,58.47,21V13.77h4.41V22.1A17.48,17.48,0,0,0,63,24.74,3.27,3.27,0,0,0,64.29,27a3,3,0,0,0,1.8.52,2.88,2.88,0,0,0,3-2,11.74,11.74,0,0,0,.27-3.2V13.77h4.38Z" transform="translate(-4.56 -5.23)"/><path class="cls-5" d="M82.52,9.48a2.76,2.76,0,0,1-.8,2,2.64,2.64,0,0,1-2,.81,2.67,2.67,0,0,1-2-.83,2.8,2.8,0,0,1-.81-2,2.76,2.76,0,0,1,4.73-1.94A2.75,2.75,0,0,1,82.52,9.48ZM82,35.6H77.57V13.77H82Z" transform="translate(-4.56 -5.23)"/><path class="cls-5" d="M89.76,31.09H85.4v-24h4.36Z" transform="translate(-4.56 -5.23)"/><path class="cls-5" d="M110.8,31.09h-4.34V29.26a7.63,7.63,0,0,1-11.31-.5,9.4,9.4,0,0,1-2.27-6.3A9.64,9.64,0,0,1,95,16.11a7.63,7.63,0,0,1,11.42-.43V7.08h4.34Zm-4.14-8.69a5.15,5.15,0,0,0-1.3-3.61,4.77,4.77,0,0,0-6.88.05,5.19,5.19,0,0,0-1.25,3.57A5.27,5.27,0,0,0,98.5,26a4.33,4.33,0,0,0,3.42,1.54A4.45,4.45,0,0,0,105.41,26,5.32,5.32,0,0,0,106.66,22.4Z" transform="translate(-4.56 -5.23)"/><path class="cls-5" d="M119.67,9.48a2.76,2.76,0,0,1-.8,2,2.76,2.76,0,0,1-3.93,0,2.8,2.8,0,0,1-.81-2,2.76,2.76,0,0,1,4.73-1.94A2.75,2.75,0,0,1,119.67,9.48Zm-.58,21.61h-4.37V13.77h4.37Z" transform="translate(-4.56 -5.23)"/><path class="cls-5" d="M138.37,31.09h-4.32V23.5c0-1.58,0-2.58-.07-3a3.88,3.88,0,0,0-1.16-2.67,2.79,2.79,0,0,0-1.71-.53q-2.79,0-3.57,3.32a20.62,20.62,0,0,0-.19,3.52v7H123V13.77h4.34v1.77a8.09,8.09,0,0,1,5.14-2.22,5.92,5.92,0,0,1,4.37,1.8,6.18,6.18,0,0,1,1.51,4.52Z" transform="translate(-4.56 -5.23)"/><path class="cls-5" d="M159.69,28.6c0,2.92-.58,5.07-1.76,6.46-1.59,1.87-4,2.81-7.15,2.81s-5.6-.84-7.21-2.5a7.73,7.73,0,0,1-1.76-3h4.77a5,5,0,0,0,4,1.49c2.22,0,3.66-.64,4.33-1.94a7.23,7.23,0,0,0,.43-3,7.14,7.14,0,0,1-5.25,2.15,7.71,7.71,0,0,1-6-2.65,9,9,0,0,1-2.27-6.24,8.87,8.87,0,0,1,2.55-6.62,7.6,7.6,0,0,1,5.5-2.26,7.83,7.83,0,0,1,5.48,2.36V13.77h4.34Zm-4.12-6.35a4.87,4.87,0,0,0-1.29-3.49,4.93,4.93,0,0,0-6.81,0,4.76,4.76,0,0,0-1.32,3.45,4.89,4.89,0,0,0,1.34,3.52,4.57,4.57,0,0,0,3.45,1.4,4.36,4.36,0,0,0,3.38-1.41A4.93,4.93,0,0,0,155.57,22.25Z" transform="translate(-4.56 -5.23)"/><text class="cls-6" transform="translate(2.34 68.2)">manage projects one block at a time</text></svg>